/* XPM */
static char *_bef72f82cba4c02f85bfa5ade19ba303ozK8lmNZj1UTvTf[] = {
/* columns rows colors chars-per-pixel */
"48 48 20 1 ",
"  c #342031",
". c #4D2F47",
"X c #483146",
"o c #433348",
"O c #443449",
"+ c #764B64",
"@ c #FF001A",
"# c #D50026",
"$ c #FF4F00",
"% c #941D45",
"& c #933F5A",
"* c #C85B52",
"= c #DE7B62",
"- c #FF8A00",
"; c #FF985D",
": c #EF9C68",
"> c #886E8E",
", c #91ADB4",
"< c #B9DECE",
"1 c white",
/* pixels */
"&&&&&&&&&&&&&&&&&&&&&&&&&&&&&&&&&&&&&&&&&&&&&&&&",
"&*====================&&&&&&&=================*&",
"&==============================================&",
"&==:::::::::::::::::::=======::::::::::::::::==&",
"&==::===:=:::::::::::::::::::::::::::::::::::==&",
"&==::::::::::::::::::::::=:===:::::::::::::::==&",
"&==::::::::::::::::::::::::::::::::::::::::::==&",
"&==::::::::::::::::::::::::::::::::::::::::::==&",
"&==::::::::::::::::::::::::::::::::::::::::::==&",
"&==::::::::++++++;::::;+++;::::;++++++::::::==&&",
"&==:::::::+<<<<<+;;;;;+<<<+;;;;;+<<<<<+:::::==&&",
"&==:::::::+<<<<<+::::+<<<<<+%%%%+<<<<<+:::::==&&",
"&==:::::::+11111+%%%%+11111+%%%%+11111+:::::==&&",
"&==:::::::+11111+$$$$+11111+$$$$+11111+:::::==&&",
"&==:::::::+11111+$$$$+11111+$$$$+11111+:::=:==&&",
"&==:::::::+11111+----+11111+----+11111+:::=:==&&",
"&==:::::::+<<<<<+----+<<<<<+----+<<<<<+:::=:==&&",
"&==:::::::+<<<<<+$$$$+<<<<<+$$$$+<<<<<+:::::==&&",
"&==:::::::+,,,,,+@@@@+,,,,,+@@@@+,,,,,+::::===&&",
"&==:::::::+,,,,,+@@@@+,,,,,+@@@@+,,,,,+:::::==&&",
"&==:::::::o>>>>>+####+>>>>>+####+>>>>>o::::::==&",
"&==:::::::o>>>>>+####+>>>>>+####+>>>>>o::::::==&",
"&====:::::ooooooo    O11<<<O    ooooooo::::::==&",
"&==:==::::o++++o     O11<<<O     o++++o::::::==&",
"&==:::::::o++++o     O,,,,,O     o++++o::::::==&",
"&==:::::::o++++o     O,,,,,O     X++++o::::::==&",
"&==:::::::o++++o      OOOOO      X++++X::::=:==&",
"&==::=::::...........................XX::::=:==&",
"&&===:::::.11111.@@$$$$$$$$$$$@@.11111.::::::==&",
"&&==::::::.11111.@@$$$$$$$$$$$@@.11111.::::::==&",
"&&===:::::.<<<<<.$$$$$$$$$$$$$$$.<<<<<.::::::==&",
"&&==::::::.<<<<<.$$$$$$$$$$$$$$$.<<<<<.:::=::==&",
"&&==::::::.,,,,,.$$$$$$$$$$$$$$$.,,,,,.::::::==&",
"&&==::::::.,,,,,.$$$$$$$$$$$$$$$.,,,,,.::::::==&",
"&&==::::::.>>>>>.@@$$$$$$$$$$$@@.>>>>>.::::::==&",
"&&==::::::.>>>>>.@@$$$$$$$$$$$@@.>>>>>.::::::==&",
"&&==::::::.+++++.###############.+++++.::::::==&",
"&&==::::::.+++++.###############.+++++.::::::==&",
"&==::::::::::::::::::::::::::::::::::::::::::==&",
"&==::::::::::::::::::::::::::::::::::::::::::==&",
"&==::::::::::::::::::::::::::::::::::::::::::==&",
"&==::::::::::::::::::::::::::::::::::::::::::==&",
"&==::::::::::::::::::::::::::::::::::::::::::==&",
"&==::==:=::::::::::::::::::::::::::::::=:::::==&",
"&==:::::::::::::::::=====:::::::::::::==:::::==&",
"&==============================================&",
"&*==================&&&&&=====================*&",
"&&&&&&&&&&&&&&&&&&&&&&&&&&&&&&&&&&&&&&&&&&&&&&&&"
};
