/* XPM */
static char *e07c45672c2147acf7fd113f3cdba63c3xi26ZJQTvLj5uxg[] = {
/* columns rows colors chars-per-pixel */
"48 48 20 1 ",
"  c #403447",
". c #6F4D63",
"X c #BB0032",
"o c #C0002E",
"O c #FF1729",
"+ c #FA1A2B",
"@ c #FF182A",
"# c #FE1C29",
"$ c #FF1B2F",
"% c #FF5F00",
"& c #862945",
"* c #933F5A",
"= c #C85B52",
"- c #DE7B62",
"; c #FF9100",
": c #EF9C68",
"> c #836F8C",
", c #97ACB3",
"< c #C1DDCF",
"1 c white",
/* pixels */
"************************************************",
"*=--------------------*******-----------------=*",
"*----------------------------------------------*",
"*--:::::::::::::::::::-------::::::::::::::::--*",
"*--::---:-:::::::::::::::::::::::::::::::::::--*",
"*--::::::::::::::::::::::-:---:::::::::::::::--*",
"*--::::::::::::::::::::::::::::::::::::::::::--*",
"*--::::::::::::::::::::::::::::::::::::::::::--*",
"*--::::::::::::::::::::::::::::::::::::::::::--*",
"*--::::::::.....:::::::...:::::::.....::::::--**",
"*--:::::::.......:::::.....:::::.......:::::--**",
"*--:::::::.,,,,,.&&&&.,,,,,.&&&&.,,,,,.:::::--**",
"*--:::::::.,,,,,.&&&&.,,,,,.&&&&.,,,,,.:::::--**",
"*--:::::::.<<<<<.$$$$.<<<<<.$+$$.<<<<<.:::::--**",
"*--:::::::.<<<<<.$$$$.<<<<<.$$$$.<<<<<.:::-:--**",
"*--:::::::.11111.%%%%.<<<<<.%%%%.<<<<<.:::-:--**",
"*--:::::::.11111.%%%%.11111.%%%%.11111.:::-:--**",
"*--:::::::.11111.;;;;.11111.;;;;.11111.:::::--**",
"*--:::::::.11111.;;;;.11111.;;;;.11111.::::---**",
"*--:::::::.<<<<<.;;;;.<<<<<.;;;;.<<<<<.:::::--**",
"*--:::::::.<<<<<.;;;;.<<<<<.;;;;.<<<<<.::::::--*",
"*--:::::::.<<<<<.%%%%.<<<<<.%%%%.<<<<<.::::::--*",
"*----:::::.<<<<<.%%%%.<<<<<.%%%%.<<<<<.::::::--*",
"*--:--::::.>>>>>.$$$$.>>>>>.$$$$.>>>>>.::::::--*",
"*--:::::::.>>>>>.$@O$.>>>>>.$O$$.>>>>>.::::::--*",
"*--::::::: >>>>>.$$$$.>>>>>.$$$$.>>>>> ::::::--*",
"*--:::::::       &&&&.     .&&&&       ::::-:--*",
"*--::-:::: >>>>> $$$$ 11<<< $$$$ >>>>> ::::-:--*",
"**---::::: >>>>> $$$$ 11<<< $$$$ >>>>> ::::::--*",
"**--:::::: >>>>> $$$$ ,,,,, $$$$ >>>>> ::::::--*",
"**---::::: ,,,,, %%%% ,,,,, %%%% ,,,,, ::::::--*",
"**--:::::: ,,,,, %%%%$     $%%%% ,,,,, :::-::--*",
"**--:::::: ,,,,, %%%%%$   $%%%%% ,,,,, ::::::--*",
"**--:::::: ,,,,, %%%%%%$$$%%%%%% ,,,,, ::::::--*",
"**--:::::: >>>>> $$%%%%%%%%%%%$$ >>>>> ::::::--*",
"**--:::::: >>>>> $$%%%%%%%%%%%#$ >>>>> ::::::--*",
"**--:::::: ..... ooooooXoooooooo ..... ::::::--*",
"**--:::::: ..... ooooXXXXooooooo ..... ::::::--*",
"*--::::::::::::::::::::::::::::::::::::::::::--*",
"*--::::::::::::::::::::::::::::::::::::::::::--*",
"*--::::::::::::::::::::::::::::::::::::::::::--*",
"*--::::::::::::::::::::::::::::::::::::::::::--*",
"*--::::::::::::::::::::::::::::::::::::::::::--*",
"*--::--:-::::::::::::::::::::::::::::::-:::::--*",
"*--:::::::::::::::::-----:::::::::::::--:::::--*",
"*----------------------------------------------*",
"*=------------------*****---------------------=*",
"************************************************"
};
