/* XPM */
static char *f9dd0bd07c7b4a30e8cfdf16472882b5YyFVTHTBAD4xOtlo[] = {
/* columns rows colors chars-per-pixel */
"48 48 72 1 ",
"  c #501C3D",
". c #56213D",
"X c #58213E",
"o c #59213E",
"O c #5D243F",
"+ c #5E243F",
"@ c #5C2440",
"# c #5E2440",
"$ c #5F2540",
"% c #602641",
"& c #622742",
"* c #632643",
"= c #632745",
"- c #642744",
"; c #692A45",
": c #6A2947",
"> c #6D2C4B",
", c #6F2C4A",
"< c #702D42",
"1 c #773243",
"2 c #7C3545",
"3 c #7C3A47",
"4 c #79324E",
"5 c #7B334E",
"6 c #7E3452",
"7 c #7F3552",
"8 c #86394F",
"9 c #813753",
"0 c #833752",
"q c #863854",
"w c #8B3B58",
"e c #8D3C58",
"r c #8F3D5A",
"t c #8C3B5C",
"y c #933F5A",
"u c #933F5D",
"i c #97415A",
"p c #96405D",
"a c #994259",
"s c #9B425A",
"d c #9A425B",
"f c #9D445A",
"g c #A64A4B",
"h c #A94A57",
"j c #AD4B55",
"k c #A0465C",
"l c #AE4F59",
"z c #B24C54",
"x c #B65155",
"c c #B75157",
"v c #B85153",
"b c #BD5151",
"n c #BA5450",
"m c #BC5656",
"M c #C05754",
"N c #C85B52",
"B c #CA5E53",
"V c #CF6053",
"C c #DB6E5B",
"Z c #D7725A",
"A c #DC7661",
"S c #DD7861",
"D c #DD7961",
"F c #DE7B62",
"G c #E37F60",
"H c #E37F63",
"J c #E47D62",
"K c #D58661",
"L c #E48063",
"P c #E38064",
"I c #EE9B68",
"U c #EF9C68",
/* pixels */
"yyyyyyyyyyyyyyyyyyyyiyyyyyyyyyyypyyyyyipippiprii",
"yNFFFFFFFFFFFFFFFFFFFFyyyyyyyFFFFFFFFFFFZFFDFFNr",
"yFFFFFFFFFFFFFFFFFFFFFFFFFFFFFFFFFFFFFFFFKFFFFFy",
"yFFUUUUUUUUUUUUUUUUUUUFFFFFFFUUIUUUUIIIIIIIIIFFy",
"yFFIU$$$$$$$$$$%$$$$$$OU%O%O$$$$$$$$$%%%$$$UUFFy",
"yFFU$$xxxxxxxxxvxxxxxxxxzxxxxxxxxxxxxxxvxx$$UFFy",
"yFF$$xxFFFFFHLLLLLLFFFFxZHHHHHHHHHHHJLLLJxx$$FFy",
"yFF$xFFFLLLLLLLLLLFFFFFVHZFFFFFFFFFLHHPPFFxx$FFp",
"yFF$xFAFHLLLHLLLLLHHFFJBAAJHHPPPLLLLLLLJLLFxOFJy",
"yFF$xFHLHHFLHHLLLLHFAFABZFAHFFLPLLLLLLLLLPFxOFyy",
"yFF$xAFHJLHHLFAFLLFAFFZVJFAFLLLLLLPPLLLLLHFxOFyy",
"yFF$xFAHHLLHLLHLHHLJFAMnbAFAJLLLPPPPLLLLFFFz$Fyy",
"yFF$9lAFHFFAALHHHHHHFAg%%mFAFFHHHHHPLLLJAZvx%Fuy",
"yFF$$dJZZHHHLLFAZJAFAc8$%dAFAAAFFFFZFFLAFFx$#Fyy",
"yFF$$pFFJAFFJAFAFAAFxk7%OufAZFFFAzHZAAjcFxx%#Fyy",
"yFFO$rdAAFAAAhwywAFAdw5%O%wiHFFFuwhFFdwkmxr%+Jyy",
"yFF$##%#$$$%%+%+%$$$$$+%%+$$$$$$$$$$$$O%O$$$+Fyy",
"yFF$#%#$$$$$+%+$%$$$$$++++$$$$$$$O$$$$=%%$%.%Fyy",
"yFF$zcvxxxcv                        dddidddd+Fyy",
"yFFOxvvHJLJz                        vxvxvxxv+Jyy",
"yFF.cvLHJJJz                        xCCCZCCxOFKu",
"yFF#cJLHLJHv                        xCCCCCvdOFZp",
"yFF@xJHHJJHv                        xxCCCCviOFFp",
"yFF.vJHHJJHv                        xxCCCCxx$FFp",
"yFF#zHHHHHJv                        xxCCCCCx$FFy",
"yFF.xxPHHJJv                        xxCCCCCx$FFy",
"yFF@vzHHHJxx                        xCCCCCCx$FFy",
"yFF#cvcJHxxx                        xCCCCCCx$FFy",
"yyF$vxxxxxxx                        iiCCCddd$FFy",
"yyF$-4xxxxx:                        ;eadiddO$FFy",
"yyF$.O,,>>:                         OO%$$$OO$FFy",
"yyF$xxxxxxvx                        1311332<$FFy",
"yyF@xCFxxHxx                        99vxxxq9$ZHi",
"yyA@xCCCCCxx                        9xvCCxzq$JFu",
"ppFOxCCCCCCx                        9vxCCCx9%JFy",
"rrA@xCCCCCCx                        9xCCCCx9$KZy",
"uiFOzCCCCCCx                        9xCCCCz0$FFu",
"peJ vCCCCCCx                        qxCCCCv0$JFy",
"iKHOxCCCCCCx                        9vCCCCcq+FFy",
"eZH+xCCCCCCx                        qvCCCCz9%FFy",
"uFF+xCCCCCCx                        9xCCCCx0$FFp",
"uFF+xxCCCCxx                        9xxxvCx0%FZp",
"dZF-xxxxxxxx                        9vvxxxx0#FKu",
"uKF$8q966799                        q9q90000#JJy",
"yFFI$$$$$$$$KIIUUUUUFFFFFIUUIIIIIIIK+$+++#*##FFy",
"yJFFFFFFFFFFFFFFFFFFFFFFFFFFFFJFZHFFFFFFFFFFFFFy",
"yNFFFFFFFFFFFFFFFFFFyyyyyFFFFFFFFFFFFFFFFFFFFFNy",
"yyyyyyyyyyyyyyyuyyyyyyyyyyyyyyyyyyyiyyyyyyyyyyyy"
};
