/* XPM */
static char *a139c70503c54544ef68bb981883ac0442rtCHo1LQJFv0gI[] = {
/* columns rows colors chars-per-pixel */
"48 48 97 2 ",
"   c #4F1B3C",
".  c #501C3D",
"X  c #511C3D",
"o  c #531F3E",
"O  c #55203D",
"+  c #57213F",
"@  c #59223D",
"#  c #5A233E",
"$  c #5D243F",
"%  c #5E243F",
"&  c #551F40",
"*  c #5C2440",
"=  c #5E2440",
"-  c #5F2540",
";  c #602641",
":  c #612641",
">  c #622641",
",  c #622742",
"<  c #642743",
"1  c #642745",
"2  c #662944",
"3  c #682944",
"4  c #6B2A4A",
"5  c #6F2C4A",
"6  c #702D42",
"7  c #793244",
"8  c #783444",
"9  c #7C3545",
"0  c #7C3A47",
"q  c #7D3452",
"w  c #86394F",
"e  c #813753",
"r  c #833752",
"t  c #863854",
"y  c #8D3C58",
"u  c #8F3D5A",
"i  c #8A3A5C",
"p  c #8C3B5C",
"a  c #933F5A",
"s  c #943F5A",
"d  c #933F5D",
"f  c #974159",
"g  c #95405A",
"h  c #94405B",
"j  c #97415C",
"k  c #96405D",
"l  c #994259",
"z  c #9A425B",
"x  c #9F4559",
"c  c #9F4658",
"v  c #9D445A",
"b  c #A64A4B",
"n  c #A94A57",
"m  c #AD4B55",
"M  c #AE4F59",
"N  c #B24C54",
"B  c #B65155",
"V  c #B75157",
"C  c #B85153",
"Z  c #BD5151",
"A  c #BA5450",
"S  c #BF5553",
"D  c #B95254",
"F  c #BC5656",
"G  c #C0534F",
"H  c #C25651",
"J  c #C05754",
"K  c #C85B52",
"L  c #CB5D51",
"P  c #C95C52",
"I  c #CA5E53",
"U  c #CF5E51",
"Y  c #CD6053",
"T  c #CF6053",
"R  c #D06254",
"E  c #DB6E5B",
"W  c #D57059",
"Q  c #D7725A",
"!  c #DC7661",
"~  c #DD7861",
"^  c #DD7961",
"/  c #DF7A61",
"(  c #DE7B62",
")  c #DF7D63",
"_  c #E37F60",
"`  c #E17D62",
"'  c #E07D63",
"]  c #E37F63",
"[  c #E47D62",
"{  c #E07E64",
"}  c #E17F64",
"|  c #D58661",
" . c #E28063",
".. c #E48063",
"X. c #E38064",
"o. c #EE9B68",
"O. c #EF9C68",
/* pixels */
"a a a a a a a a s a a a a a s a a a a a s s a a a a a a a a a a s s a a a a s a a a a a s a a a ",
"a K ( ( ( ( ( ( ( ( ( ( ( ( ( ( ( ( ( ( ( ( a a a a a a a ( ( ( ( ( ( ( ( ( ( ( ( ( ( ( ( ( K a ",
"a ( ( ( ( ( ( ( ( ( ( ( ( ( ( ( ( ( ( ( ( ( ( ( ( ( ( ( ( ( ( ( ( ( ( ( ( ( ( ( ( ( ( ( ( ( ( a ",
"a ( ( O.O.O.O.O.O.O.O.O.o.O.O.O.O.O.O.o.O.O.( ) ( ( ( ( ( O.O.o.O.O.O.O.o.O.O.O.O.O.O.O.o.( ( a ",
"a ( ( o.O.- - - $ : $ - - - - : $ : $ : $ : $ O.- - - - $ : $ : - - - - - $ : $ $ : : O.O.( ( a ",
"a ( ( O.- - B B B D B B B B B D B B B B B B B B N B B B B B B B B B B B B B B D B B $ : O.( ( a ",
"a ( ( - - B B ( ' ( ( ' ] ] ..........( ( ( ( B Q _ ] ] ] ] ' ..] ] ......' ' ..' C B $ $ ( ( a ",
"a ( ( - B ( ( ( ..] ] ..............( ( ( ( ( Y ( ! ( ( ( ( ( ) ( ( ) ..........) ( B B : ( ( a ",
"a ( ( - D ( ! ( ] ......] ............' ( ( ( I Q ' ' ] ......................( ....( B $ ( ( a ",
"a ( ( - N ( ] ..] ] ( ..] ] ..........' ! ( ! I ' ! Q ] ' / ......................' ( B : ( a a ",
"a ( ( - B ) ' ..' ..] ] ..( ! ( ....) Q ) ( ! U ! ! ' ' ..........................' ( B $ ( a a ",
"a ( ( - D ! ! ' ] ....] ....] ....' ..' ( ! H A Z ! ! ! / ......................! ( ( B : ( a a ",
"a ( ( - e M ! ( ] ' ' ! ! ..] ] ] ] ] ] ! ( b - $ F ( ! / ' ] ] ] ......] ] ] ' ( ( D N : ( a a ",
"a ( ( - - z ' Q Q ] ......] ! ( ! ' ' ! ( N r * ; v ! ( Q ' ! ' ! ( ( ! ( ' ] ( Q ' D : $ ( a a ",
"a ( ( - - k ( ( ' ! ! ( ' ' ! ! ' ' ! ! B n q - % s v ! ( ( ' E ! m ( ! ! ! m D ( B D - : ( a a ",
"a ( ( $ - u z ! ' ! ' E Q m p d p Q ' ! s u q : = : i s ( ' ' ' s p n ( ' z i v S B u - $ ( a a ",
"a ( ( = $ ; ; % ; = ; : ; = ; = - % : % - - $ - - - - - - - - - : $ : $ : $ $ : $ : $ : : ( a a ",
"a ( ( = ; % ; : = ; = : $ ; = = % > : % - $ $ - $ - - - - - - - $ : $ : $ : 1 - : $ $ @ $ ( a a ",
"a ( ( $ N V C C N D N D o o & = @ @ o @ $ # # # - - # # # # # # @ $ @ @ z z z z z g z z : ( a a ",
"a ( ( $ C V D ] ] ..[ Z o ; ; ; 1 3 3 3 3 3 < < - , < 3 3 3 < < $ - + + B B C B D B B D $ ( a a ",
"a ( ( @ N V ] ] ] [ [ C $ o % s v z k k z k d p , k g k g k k k h # + @ B E E E E E Q C - ) ( a ",
"a ( ( * D ] ] ] ] ] ] N @ o s v z d k z z g n F $ z k z g a h h h h + + B E E E E E C z $ ( ( a ",
"a ( ( * V [ ] ] [ [ ] C o o d z d z s P T R R F - D G R R R c g h h   * B B E E E E B g $ ( ( a ",
"a ( ( & D [ ] ] [ [ [ C ; o v s s s U U X.....X.-  ... .Y T T k k g   # B B E E E E B B - ) ( a ",
"a ( ( * N X.' ..] ] [ C o = d s k J R ..] ..] ] -  .......R R R k k + + B B E E E E E B - ( ( a ",
"a ( ( = N D ....] ] [ C = & z z F J ....] ' ] ] - ..........R R U a   * B B E E E E E B - ( ( a ",
"a ( ( @ N C ] ] ] ] B B o o z s J R ..X.] ] X.F - ........ ...R U a o @ B E E E E E E B - ( ( a ",
"a ( ( $ V C D ] ] B B B & $ s d J ' ..' ' ' ' F - ........X.....K s o + B E E E E E E B - ( ( a ",
"a a ( = D N D B B B B B * & z d J ] ' ' ' ' X.X.- S ............P s + @ a a E E E g z g - ( ( a ",
"a a ( - : q B B B B B 2 o - d J J ] ] ]  .' ) ' - S ............K s + + < y c f z z z - - ( ( a ",
"a a ( - + : 4 5 4 5 4 o & + z I ..] ' ' ( |  ...- S ............K s $ @ $ - - - - - - - - ( ( a ",
"a a ( - B B B B D N C C & * k U ..] ' '  .' ) S - S ............K s & @ 7 0 8 7 0 0 9 6 - ( ( a ",
"a a ( @ B E ) B B ' B B $ o z K X.' ' ) | [ { J ; [ [ ] ........U a . = t e N B B B e t $ ( ( s ",
"a a ( * B E E E E E B B * & z K ' ' X.) { } { J ; ' ] ] ........Q d   * e B A E E B C e $ ( ( a ",
"a a ( * B E E E E E E B $ . d P ..X.' ' { { [ { 1 ..] ] ........W s   & e D B E E E B t $ ( ( a ",
"a a ( o B E E E E E E B @ + k P ..' X.' { { } { : ] ] ] ........W a . o e B E E E E B e $ ( ( a ",
"a a ( & D E E E E E E B o o s W ........' ' ' ' : ] ............W a . = e N E E E E C e - ( ( s ",
"a a ( * N E E E E E E B * & z W ........| ' ' ' : ] ............W a   o t D E E E E B e - ( ( s ",
"a ( ( @ D E E E E E E B = @ d Q ......[ _ ] ....: ..] ..........W a & * e B E E E E B e $ ( ( s ",
"a ( ( = B E E E E E E B = : d W ......] ] ] ....: ' ] ..........W a = o t B E E E E C t : ( ( s ",
"a ( ( $ B E E E E E E B : $ z W ................- ] ..] ..] ..' W z o @ e B E E E E C e $ ) ( a ",
"a ( ( - B B E E E E B B $ : s W W W W W W W W W - W Q W Q W Q Q W s = @ t B B B B E N t - ' ( a ",
"a ( ) - B B B B B B B B : $ : $ - - - - - - - - - - - - $ - - - : = @ o e C D B B C C e $ ( ( a ",
"a ( ) : w t e q q q e e $ : $ : - - - - - - - - - - - - - - - - : = : $ e e e t e t e e $ ( ( a ",
"a ( ( O.- - - - - - - - | o.o.O.o.O.O.O.( ( ( ( ( O.O.O.O.O.O.O.o.o.o.| $ $ $ $ $ $ > $ - ( ( s ",
"a ( ( ( ( ( ( ( ( ( ( ( ( ( ( ( ( ( ( ( ( ( ( ( ( ( ( ( ( ( ( ( ( ( ( ( ( ( ( ( ( ( ) ( ( ( ( s ",
"a K ( ( ( ( ( ( ( ( ( ( ( ( ( ( ( ( ( ( a a a a a ( ( ( ( ( ( ( ( ( ( ( ( ( ( ( ( ( ( ( ( ( K s ",
"a a a a a a a a a a a a a s s s a a a a a a a a a a a s a a a a a a s s a a a a s s a a a a a s "
};
