/* XPM */
static char *_91d5b639b364272daab4fe0bf61bc37uOF5cms31EVIusWq[] = {
/* columns rows colors chars-per-pixel */
"48 48 4 1 ",
"  c #933F5A",
". c #C85B52",
"X c #DE7B62",
"o c #EF9C68",
/* pixels */
"                                                ",
" .XXXXXXXXXXXXXXXXXXXX       XXXXXXXXXXXXXXXXX. ",
" XXXXXXXXXXXXXXXXXXXXXXXXXXXXXXXXXXXXXXXXXXXXXX ",
" XXoooooooooooooooooooXXXXXXXooooooooooooooooXX ",
" XXooXXXoXoooooooooooooooooooooooooooooooooooXX ",
" XXooooooooooooooooooooooXoXXXoooooooooooooooXX ",
" XXooooooooooooooooooooooooooooooooooooooooooXX ",
" XXooooooooooooooooooooooooooooooooooooooooooXX ",
" XXooooooooooooooooooooooooooooooooooooooooooXX ",
" XXoooooooooooooooooooooooooooooooooooooooooXX  ",
" XXoooooooooooooooooooooooooooooooooooooooooXX  ",
" XXoooooooooooooooooooooooooooooooooooooooooXX  ",
" XXoooooooooooooooooooooooooooooooooooooooooXX  ",
" XXoooooooooooooooooooooooooooooooooooooooooXX  ",
" XXoooooooooooooooooooooooooooooooooooooooXoXX  ",
" XXoooooooooooooooooooooooooooooooooooooooXoXX  ",
" XXoooooooooooooooooooooooooooooooooooooooXoXX  ",
" XXoooooooooooooooooooooooooooooooooooooooooXX  ",
" XXooooooooooooooooooooooooooooooooooooooooXXX  ",
" XXoooooooooooooooooooooooooooooooooooooooooXX  ",
" XXooooooooooooooooooooooooooooooooooooooooooXX ",
" XXooooooooooooooooooooooooooooooooooooooooooXX ",
" XXXXooooooooooooooooooooooooooooooooooooooooXX ",
" XXoXXoooooooooooooooooooooooooooooooooooooooXX ",
" XXooooooooooooooooooooooooooooooooooooooooooXX ",
" XXooooooooooooooooooooooooooooooooooooooooooXX ",
" XXooooooooooooooooooooooooooooooooooooooooXoXX ",
" XXooXoooooooooooooooooooooooooooooooooooooXoXX ",
"  XXXooooooooooooooooooooooooooooooooooooooooXX ",
"  XXoooooooooooooooooooooooooooooooooooooooooXX ",
"  XXXooooooooooooooooooooooooooooooooooooooooXX ",
"  XXooooooooooooooooooooooooooooooooooooooXooXX ",
"  XXoooooooooooooooooooooooooooooooooooooooooXX ",
"  XXoooooooooooooooooooooooooooooooooooooooooXX ",
"  XXoooooooooooooooooooooooooooooooooooooooooXX ",
"  XXoooooooooooooooooooooooooooooooooooooooooXX ",
"  XXoooooooooooooooooooooooooooooooooooooooooXX ",
"  XXoooooooooooooooooooooooooooooooooooooooooXX ",
" XXooooooooooooooooooooooooooooooooooooooooooXX ",
" XXooooooooooooooooooooooooooooooooooooooooooXX ",
" XXooooooooooooooooooooooooooooooooooooooooooXX ",
" XXooooooooooooooooooooooooooooooooooooooooooXX ",
" XXooooooooooooooooooooooooooooooooooooooooooXX ",
" XXooXXoXooooooooooooooooooooooooooooooXoooooXX ",
" XXoooooooooooooooooXXXXXoooooooooooooXXoooooXX ",
" XXXXXXXXXXXXXXXXXXXXXXXXXXXXXXXXXXXXXXXXXXXXXX ",
" .XXXXXXXXXXXXXXXXXX     XXXXXXXXXXXXXXXXXXXXX. ",
"                                                "
};
