/* XPM */
static char *_a472eaf9b7c4bb3af25c5f7d31fab37kzx6VHROobHJJOV7[] = {
/* columns rows colors chars-per-pixel */
"48 48 95 2 ",
"   c None",
".  c #6C002A",
"X  c #7A044F",
"o  c #7E0352",
"O  c #7A0450",
"+  c #7C0451",
"@  c #870033",
"#  c #900038",
"$  c #840457",
"%  c #860458",
"&  c #91045F",
"*  c #92055F",
"=  c #B40045",
"-  c #B90047",
";  c #BE0049",
":  c #A51964",
">  c #AB1F66",
",  c #A62367",
"<  c #AC2166",
"1  c #AE2267",
"2  c #AD2C63",
"3  c #AE2E6A",
"4  c #BB306A",
"5  c #C7004C",
"6  c #D70052",
"7  c #E0235E",
"8  c #C63A6D",
"9  c #E22B61",
"0  c #E23C65",
"q  c #E63D67",
"w  c #FF3B76",
"e  c #FF3F76",
"r  c #EB516E",
"t  c #FF4077",
"y  c #EE5870",
"u  c #EC5E72",
"i  c #FF5078",
"p  c #FF5178",
"a  c #FF5279",
"s  c #FF5379",
"d  c #ED6678",
"f  c #F06575",
"g  c #FF627A",
"h  c #FF647B",
"j  c #F06979",
"k  c #F26B79",
"l  c #F36C78",
"z  c #F36C7A",
"x  c #F66F7B",
"c  c #FF697B",
"v  c #FF6A7B",
"b  c #FF6C7B",
"n  c #FF6C7C",
"m  c #FF6D7C",
"M  c #FF6E7C",
"N  c #F7717B",
"B  c #FC757C",
"V  c #FF747C",
"C  c #FF757D",
"Z  c #FC767C",
"A  c #FD777D",
"S  c #FF777D",
"D  c #FF787D",
"F  c #FF797D",
"G  c #FF7A7D",
"H  c #FF7B7E",
"J  c #FF7C7E",
"K  c #FF8781",
"L  c #F98981",
"P  c #F98A82",
"I  c #FF8982",
"U  c #FA8C83",
"Y  c #FF8D83",
"T  c #FF8A85",
"R  c #FF8E84",
"E  c #FF8F86",
"W  c #FF9285",
"Q  c #FF9385",
"!  c #FC9585",
"~  c #FF9485",
"^  c #FC9586",
"/  c #FF9486",
"(  c #FC9786",
")  c #FF9787",
"_  c #FC9886",
"`  c #FF9887",
"'  c #FD9A87",
"]  c #FD9B88",
"[  c #FE9E89",
"{  c #FFA28A",
"}  c #FFA38B",
"|  c #FFBCA0",
" . c #FFC7AA",
".. c #FFC8AA",
"X. c #FFC9AB",
/* pixels */
"                                                                                                ",
"                                                                                                ",
"                                                                                                ",
"                                                                                                ",
"                                                                                                ",
"                                                                                                ",
"                                                                                                ",
"                                                                                                ",
"                                                                                                ",
"                                                                                                ",
"                                        6 6 6 6 6 6 6 6 6                                       ",
"                                        6 6 6 6 6 6 6 6 6                                       ",
"                                    6 6 { { { { { { { { { 6 6                                   ",
"                                    6 6 { { { { { { { { { 6 6                                   ",
"                              - 5 0 ' ! X. .{ { Y H H H H ! ' 0 5 -                             ",
"                              5 6 q { { X.X.{ { Y H S H H { { q 6 5                             ",
"                              0 q y Q Q | | { { W D D G D ~ ~ y q 0                             ",
"                          6 6 ' { ! S H { { { { Y D G D G D D ~ { ' 6 6                         ",
"                          6 6 ! { Q H S { { } } W D D G D G D ~ { ! 6 6                         ",
"                          6 6 [ { Q S H G D D D D D D D G D D ~ { ' 6 6                         ",
"                          6 6 [ { Q D D D D D D D G G D D D G ~ { [ 6 6                         ",
"                          6 6 ! { Q D S * * Z D G D Z & * G D ~ { ! 6 6                         ",
"                          6 6 ' { Q H H * & Z D D G Z * * G D ~ { ' 6 6                         ",
"                      . . r r Y Y K H S * & H D G D D & & D D K Q Y r r . .                     ",
"                      6 6 } { G G D G D & & Z D D G Z * & S D D D J } { 6 6                     ",
"                      6 6 } } J D G D G * * Z S D D Z & * H D D G J { { 6 6                     ",
"                      6 6 } } G G D D D H S w w e w w D G D D D D G { } 6 6                     ",
"                      6 6 } { G D G D D D D w e e w w S D G D G D G { } 6 6                     ",
"                = 6 7 } } G D D G D G D S H S D D D D S G D G D D D D G { { 9 6 =               ",
"                ; 6 7 } } D G D D G D G H S D D D D D H D G D G D H D D { { 7 6 ;               ",
"            @ # u f l K K D D s p i s s i i p p p s p p p p s p p s D D I K x f u # @           ",
"            6 6 L { ' G D G D t w w w e w w e w w e w w w w w e w t D S H H ! { P 6 6           ",
"            6 6 P { ) S V S S e w w w w w w w w w w w w w w w w w e H V V S ! { P 6 6           ",
"            6 6 ! { E w w w w w w w w w w w w w w w w w w w w w w w w w w w Q { ) 6 6           ",
"            6 6 U { T e w w w w w w w w w w w w w w w w w w w w w w w w w w T { U 6 6           ",
"                O * 3 { { S H S H g w w w w w w w w w w w w w g D D S H { { 3 & O               ",
"                $ * , { { H S H H g w e w e w w w w e w w w w g D D H S { { , * %               ",
"                      , 3 > : > < 8 c c v b c c b c c b b h c 8 < < : > 3 ,                     ",
"                      * & & & & & 4 S H H S H S H S D D H H H 4 * * * & & &                     ",
"                      % X + % + X 2 z d z x d j x z d x l d z 2 X O $ + O %                     ",
"                                    * & & & & & & & & & & & *                                   ",
"                                    & & & & & * & & & * & & &                                   ",
"                                                                                                ",
"                                                                                                ",
"                                                                                                ",
"                                                                                                ",
"                                                                                                ",
"                                                                                                "
};
