/* XPM */
static char *_c82a0e13f11456f8248f58a074fe979P5ChVvEpqsNx7GNU[] = {
/* columns rows colors chars-per-pixel */
"48 48 7 1 ",
"  c None",
". c #91045F",
"X c #D70052",
"o c #FF3B76",
"O c #FF797D",
"+ c #FFA28A",
"@ c #FFC9AB",
/* pixels */
"                                                ",
"                                                ",
"                                                ",
"                                                ",
"                                                ",
"                                                ",
"                  XXXXXXXXXXXX                  ",
"                  XXXXXXXXXXXX                  ",
"                  XXXXXXXXXXXX                  ",
"               XXX++++++++++++XXX               ",
"               XXX++++++++++++XXX               ",
"               XXX++++++++++++XXX               ",
"            XXX+++@@@+++OOOOOO+++XXX            ",
"            XXX+++@@@+++OOOOOO+++XXX            ",
"            XXX+++@@@+++OOOOOO+++XXX            ",
"         XXX+++OOO++++++OOOOOOOOO+++XXX         ",
"         XXX+++OOO++++++OOOOOOOOO+++XXX         ",
"         XXX+++OOO++++++OOOOOOOOO+++XXX         ",
"         XXX+++OOOOOOOOOOOOOOOOOO+++XXX         ",
"         XXX+++OOOOOOOOOOOOOOOOOO+++XXX         ",
"         XXX+++OOOOOOOOOOOOOOOOOO+++XXX         ",
"         XXX+++OOO...OOOOOO...OOO+++XXX         ",
"         XXX+++OOO...OOOOOO...OOO+++XXX         ",
"         XXX+++OOO...OOOOOO...OOO+++XXX         ",
"      XXX+++OOOOOO...OOOOOO...OOOOOO+++XXX      ",
"      XXX+++OOOOOO...OOOOOO...OOOOOO+++XXX      ",
"      XXX+++OOOOOO...OOOOOO...OOOOOO+++XXX      ",
"      XXX+++OOOOOOOOOooooooOOOOOOOOO+++XXX      ",
"      XXX+++OOOOOOOOOooooooOOOOOOOOO+++XXX      ",
"      XXX+++OOOOOOOOOooooooOOOOOOOOO+++XXX      ",
"   XXX+++OOOOOOOOOOOOOOOOOOOOOOOOOOOOOO+++XXX   ",
"   XXX+++OOOOOOOOOOOOOOOOOOOOOOOOOOOOOO+++XXX   ",
"   XXX+++OOOOOOOOOOOOOOOOOOOOOOOOOOOOOO+++XXX   ",
"XXX+++OOOOOOooooooooooooooooooooooooOOOOOO+++XXX",
"XXX+++OOOOOOooooooooooooooooooooooooOOOOOO+++XXX",
"XXX+++OOOOOOooooooooooooooooooooooooOOOOOO+++XXX",
"XXX+++oooooooooooooooooooooooooooooooooooo+++XXX",
"XXX+++oooooooooooooooooooooooooooooooooooo+++XXX",
"XXX+++oooooooooooooooooooooooooooooooooooo+++XXX",
"   ...+++OOOOOOooooooooooooooooooOOOOOO+++...   ",
"   ...+++OOOOOOooooooooooooooooooOOOOOO+++...   ",
"   ...+++OOOOOOooooooooooooooooooOOOOOO+++...   ",
"      .........OOOOOOOOOOOOOOOOOO.........      ",
"      .........OOOOOOOOOOOOOOOOOO.........      ",
"      .........OOOOOOOOOOOOOOOOOO.........      ",
"               ..................               ",
"               ..................               ",
"               ..................               "
};
