/* XPM */
static char *_fbeccdc61ca4618aceb0863d3e0d933fNRYxB8liC8mId28[] = {
/* columns rows colors chars-per-pixel */
"48 48 85 1 ",
"  c #8E0F59",
". c #91045F",
"X c #92055F",
"o c #8D1C53",
"O c #8D1855",
"+ c #8D1A54",
"@ c #8C1C54",
"# c #8E1258",
"$ c #BD1A4B",
"% c #933F5A",
"& c #AE3A47",
"* c #B03448",
"= c #A51964",
"- c #AB1F66",
"; c #A62367",
": c #AC2166",
"> c #AE2267",
", c #AE2E6A",
"< c #B13363",
"1 c #BB306A",
"2 c #CA0C4E",
"3 c #C1154B",
"4 c #C4124C",
"5 c #D70052",
"6 c #E0235E",
"7 c #C63A6D",
"8 c #E22B61",
"9 c #E23E65",
"0 c #E63D67",
"q c #FF3B76",
"w c #A9614F",
"e c #B5644D",
"r c #B7684E",
"t c #AF6850",
"y c #B97253",
"u c #BF7353",
"i c #C85B52",
"p c #C27654",
"a c #C17956",
"s c #C67C56",
"d c #C97E57",
"f c #FF4077",
"g c #EE5870",
"h c #EC5F72",
"j c #FF5078",
"k c #FF5279",
"l c #DE7B62",
"z c #ED6678",
"x c #F06575",
"c c #FF627A",
"v c #FF647B",
"b c #F06979",
"n c #F36C78",
"m c #F36C7A",
"M c #F66F7B",
"N c #FF6A7B",
"B c #FF6C7B",
"V c #FF6C7C",
"C c #FC757C",
"Z c #FF757D",
"A c #FD777D",
"S c #FF777D",
"D c #FF787D",
"F c #FF797D",
"G c #FF7B7E",
"H c #FF7C7E",
"J c #EF9C68",
"K c #FF8781",
"L c #F98A82",
"P c #FF8982",
"I c #FA8C83",
"U c #FF8A85",
"Y c #FF8F86",
"T c #FF9385",
"R c #FC9585",
"E c #FF9787",
"W c #FC9886",
"Q c #FD9A87",
"! c #FD9B88",
"~ c #FE9E89",
"^ c #FFA28A",
"/ c #FFA38B",
"( c #FFBCA0",
") c #FFC8AA",
"_ c #FFC9AB",
/* pixels */
"%%%%%%%%%%%%%%%%%%%%%%%%%%%%%%%%%%%%%%%%%%%%%%%%",
"%illllllllllllllllllll%%%%%%%llllllllllllllllli%",
"%llllllllllllllllllllllllllllllllllllllllllllll%",
"%llJJJJJJJJJJJJJJJJJJJlllllllJJJJJJJJJJJJJJJJll%",
"%llJJlllJlJJJJJJJJJJJJJJJJJJJJJJJJJJJJJJJJJJJll%",
"%llJJJJJJJJJJJJJJJJJJJJJJlJlllJJJJJJJJJJJJJJJll%",
"%llJJJJJJJJJJJJJJJJJJJJJJJJJJJJJJJJJJJJJJJJJJll%",
"%llJJJJJJJJJJJJJJJJJJJJJJJJJJJJJJJJJJJJJJJJJJll%",
"%llJJJJJJJJJJJJJJJJJJJJJJJJJJJJJJJJJJJJJJJJJJll%",
"%llJJJJJJJJJJJJJJJJJsduppudsJJJJJJJJJJJJJJJJll%%",
"%llJJJJJJJJJJJJJJJJJ55555555JJJJJJJJJJJJJJJJll%%",
"%llJJJJJJJJJJJJJJJJJ55555555JJJJJJJJJJJJJJJJll%%",
"%llJJJJJJJJJJJJJJe55^^^^^^^^55eJJJJJJJJJJJJJll%%",
"%llJJJJJJJJJJJJJJr55^^^^^^^^55rJJJJJJJJJJJJJll%%",
"%llJJJJJJJJJJJJ329QR__^^HHFHRQ92$JJJJJJJJJlJll%%",
"%llJJJJJJJJJJJJ250^^__^^FFFF^^052JJJJJJJJJlJll%%",
"%llJJJJJJJJJJer90gRT((^^FFFFTTg09eeJJJJJJJlJll%%",
"%llJJJJJJJJJJ55Q^RFF^^^^FFFFAFR^!55JJJJJJJJJll%%",
"%llJJJJJJJJJJ55R^TFF^^^^FFFFFFT^R55JJJJJJJJlll%%",
"%llJJJJJJJJJJ55Q^TFFFFFFFFFFFFT^!55JJJJJJJJJll%%",
"%llJJJJJJJJJJ55~^TFFFFFFFAFFFFT^~55JJJJJJJJJJll%",
"%llJJJJJJJJJJ55R^TFFX.AFFF..FFT^E55JJJJJJJJJJll%",
"%llllJJJJJJJJ55!^TFF..AFFA..FFT^!55JJJJJJJJJJll%",
"%llJllJJJJp55^^HFFFF..AFFA..FFFFF//55aJJJJJJJll%",
"%llJJJJJJJu55^^HFFFF..CAAA..FFFFF//55uJJJJJJJll%",
"%llJJJJJJJs55^/FFFFFFFqqqqFFFFFFF//55dJJJJJJJll%",
"%llJJJJJJJs55^^FFFFFFFqqqqFFFFFFS//55sJJJJJlJll%",
"%llJJlJJ$58^^FFFFFFFFFFFFFFFFFFFFSF//85$JJJlJll%",
"%%lllJJJ456^/FFFFFFFFFFFFFFFFFFFFHS/^654JJJJJll%",
"%%llJJ&*hxnKPFFkkjjkjjkkkkjjkkjkkHFUJnzx*&JJJll%",
"%%lllJ55L^RFFFFfqqqqqqqqqqqqqqqqfSAFVY^L55JJJll%",
"%%llJJ55L^!ACFFqqqqqqqqqqqqqqqqqqFZAAE^L55lJJll%",
"%%llJJ55Q^YqqqqqqqqqqqqqqqqqqqqqqqqqqY^R55JJJll%",
"%%llJJ55L^UqqqqqqqqqqqqqqqqqqqqqqqqqqU^L55JJJll%",
"%%llJJJJ@X,^^FFFFcqqqqqqqqqqqqcFFFF^^,.@JJJJJll%",
"%%llJJJJ#X;^^FFFFvqqqqqqqqqqqqvFFFF^^;.#JJJJJll%",
"%%llJJJJayw;,-=:>7VNVNNNNNVVNN7::=-,;wyaJJJJJll%",
"%%llJJJJJJy......1FFFFFFFFFFFF1X.....yJJJJJJJll%",
"%llJJJJJJJa#@+ +@<bznMzbbzMmzb<@+#+@#aJJJJJJJll%",
"%llJJJJJJJJJJJJJJt......XX....tJJJJJJJJJJJJJJll%",
"%llJJJJJJJJJJJJJJw............wJJJJJJJJJJJJJJll%",
"%llJJJJJJJJJJJJJJJJJJJJJJJJJJJJJJJJJJJJJJJJJJll%",
"%llJJJJJJJJJJJJJJJJJJJJJJJJJJJJJJJJJJJJJJJJJJll%",
"%llJJllJlJJJJJJJJJJJJJJJJJJJJJJJJJJJJJJlJJJJJll%",
"%llJJJJJJJJJJJJJJJJJlllllJJJJJJJJJJJJJllJJJJJll%",
"%llllllllllllllllllllllllllllllllllllllllllllll%",
"%illllllllllllllllll%%%%%llllllllllllllllllllli%",
"%%%%%%%%%%%%%%%%%%%%%%%%%%%%%%%%%%%%%%%%%%%%%%%%"
};
