/* XPM */
static char *_2deeb1afc6647b181d71c3dbc94d5e10rAz0GjfY1k66TrI[] = {
/* columns rows colors chars-per-pixel */
"48 48 18 1 ",
"  c #8E0E5A",
". c #91045F",
"X c #90055F",
"o c #92055F",
"O c #831C5D",
"+ c #933F5A",
"@ c #C32454",
"# c #FF3B76",
"$ c #FF3F76",
"% c #C85B52",
"& c #F04F78",
"* c #DE7B62",
"= c #EE9B68",
"- c #EF9C68",
"; c #F68181",
": c #FA8080",
"> c #FCA790",
", c #FFC9AB",
/* pixels */
"++++++++++++++++++++++++++++++++++++++++++++++++",
"+%********************+++++++*****************%+",
"+**********************************************+",
"+**-------------------*******----------------**+",
"+**--***-*-----------------------------------**+",
"+**----------------------*-***---------------**+",
"+**------------------------------------------**+",
"+**------------------------------------------**+",
"+**------------------------------------------**+",
"+**-----------------------------------------**++",
"+**-----------------------------------------**++",
"+**----------------@@@@@@@@@@---------------**++",
"+**----------------@@@@@@@@@@---------------**++",
"+**--------------@@>>>>>>>>>>@@-------------**++",
"+**--------------@@>>>>>>>>>>@@-----------*-**++",
"+**------------@@>>,,>>>;;;;;>>@@---------*-**++",
"+**------------@@>>,,>>>;;;;;>>@@---------*-**++",
"+**----------@@>>:;>>>>>;;;;;;:>>@@---------**++",
"+**----------@@>>;;>>>>>;;;;;;;>>@@--------***++",
"+**---------=@@>>;;>>>>>;;;;;;;>>@@---------**++",
"+**----------@@>>;;;;;;;;;;;;;;>>@@----------**+",
"+**----------@@>>;;;;;;;;;;;;;;>>@@----------**+",
"+****--------@@>>;;;Oo;;;;Oo;;;>>@@----------**+",
"+**-**-------@@>>;;;OO;;;;OO;;;>>@@----------**+",
"+**--------@@>>;;;;;OO;;;;OO;;;;;>>@@--------**+",
"+**--------@@>>;;;;;OO;;;;OO;;;;;>>@@--------**+",
"+**--------@@>>;;;;;;;#$$#;;;;;;;>>@@------*-**+",
"+**--*-----@@>>;;;;;;;####;;;;;;;>>@@------*-**+",
"++***---=--@@>>;;;;;;;;;;;;;;;;;;>>@@--------**+",
"++**----@@@>>;;;;;;;;;;;;;;;;;;;;;;>>@@@-----**+",
"++***--=@@@>>;;;;;;;;;;;;;;;;;;;;;;>>@@@=----**+",
"++**--@@>>;;;;;&&&&&&&&&&&&&&&&&&;;;;;>>@@---**+",
"++**--@@>>;;;;;&&&&&&&&&&&&&&&&&&;;;;;>>@@---**+",
"++**--@@>>&&&&&&&&&&&&&&&&&&&&&&&&&&&&>>@@---**+",
"++**--@@>>&&&&&&&&&&&&&&&&&&&&&&&&&&&&>>@@---**+",
"++**---=OOO>>;;;;&&&&&&&&&&&&&&;;;;>>OOO==---**+",
"++**----OOO>>;;;;&&&&&&&&&&&&&&;;;;>>OoO-----**+",
"++**------=OOOOOO;;;;;;;;;;;;;;OOOOOO=-------**+",
"+**-------=o..oo.;;;;;;;;;;;;;;.....o=-------**+",
"+**-------=  X  X;;;;;;;;;;;;;;X  X  =-------**+",
"+**--------------ooX.......oooo--------------**+",
"+**-------------- oo..oo...oXo --------------**+",
"+**-----------------==--==--==---------------**+",
"+**--**-*-----------==------==---------*-----**+",
"+**-----------------*****-------------**-----**+",
"+**********************************************+",
"+%******************+++++*********************%+",
"++++++++++++++++++++++++++++++++++++++++++++++++"
};
