/* XPM */
static char *_8d8f7154fe147acf1a9a06a0ce26bcdkNzcgY3DcfBkAsvj[] = {
/* columns rows colors chars-per-pixel */
"48 48 16 1 ",
"  c #91045F",
". c #831C5D",
"X c #933F5A",
"o c #C32454",
"O c #FF3B76",
"+ c #C85B52",
"@ c #FF4277",
"# c #DE7B62",
"$ c #EB9A66",
"% c #EC9A67",
"& c #EE9B68",
"* c #EF9C68",
"= c #FA7F80",
"- c #F68181",
"; c #FCA790",
": c #FFC7AA",
/* pixels */
"XXXXXXXXXXXXXXXXXXXXXXXXXXXXXXXXXXXXXXXXXXXXXXXX",
"X+####################XXXXXXX#################+X",
"X##############################################X",
"X##*******************#######****************##X",
"X##**###*#***********************************##X",
"X##**********************#*###***************##X",
"X##******************************************##X",
"X##******************************************##X",
"X##******************************************##X",
"X##*****************************************##XX",
"X##*****************************************##XX",
"X##*****************oooooooo****************##XX",
"X##*****************oooooooo**$*************##XX",
"X##***************oo;;;;;;;;oo**************##XX",
"X##***************oo;;;;;;;;oo************#*##XX",
"X##************ooo;;::;;-=--;;ooo*********#*##XX",
"X##************ooo;;::;;----;;ooo*********#*##XX",
"X##**********oo;;---;;;;-------;;oo$********##XX",
"X##**********oo;;---;;;;-------;;oo********###XX",
"X##**********oo;;--------------;;oo*********##XX",
"X##**********oo;;--------------;;oo**********##X",
"X##**********oo;;--------------;;oo**********##X",
"X####********oo;;---  ----  ---;;oo%*********##X",
"X##*##*******oo;;---  ----  ---;;oo**********##X",
"X##********oo;;-----  ----  -----;;oo********##X",
"X##********oo;;=----  ----  ----=;;oo********##X",
"X##********oo;;-------OOOO-------;;oo******#*##X",
"X##**#*****oo;;-------OOOO-------;;oo******#*##X",
"XX###***ooo;;----------------------;;ooo*****##X",
"XX##****ooo;;----------------------;;ooo*****##X",
"XX###*oo;;----------------------------;;oo***##X",
"XX##**oo;;-----@@@@@@@@@@@@@@@@@@-----;;oo***##X",
"XX##**oo;;-----@@@@@@@@@@@@@@@@@@-----;;oo***##X",
"XX##**oo;;-@@@@@@@@@@@@@@@@@@@@@@@@@@-;;oo***##X",
"XX##**oo;;-@@@@@@@@@@@@@@@@@@@@@@@@@@-;;oo***##X",
"XX##****...;;----@@@@@@@@@@@@@-----;;...*****##X",
"XX##***&...;;----@@@@@@@@@@@@@-----;;...&****##X",
"XX##*******......-------------.......********##X",
"X##********......-------------.......*%&*****##X",
"X##******&*......-------------.......*&******##X",
"X##********&*****             ******&********##X",
"X##**************             ***************##X",
"X##******************************************##X",
"X##**##*#******************************#*****##X",
"X##*****************#####*************##*****##X",
"X##############################################X",
"X+##################XXXXX#####################+X",
"XXXXXXXXXXXXXXXXXXXXXXXXXXXXXXXXXXXXXXXXXXXXXXXX"
};
