/* XPM */
static char *_e9e66610972420cd4ea1348999d2c7fltAXRahD6uIUPZ3c[] = {
/* columns rows colors chars-per-pixel */
"48 48 27 1 ",
"  c #91045F",
". c #900F5B",
"X c #933F5A",
"o c #981060",
"O c #D70052",
"+ c #D40551",
"@ c #D80353",
"# c #D80453",
"$ c #D80554",
"% c #D80654",
"& c #D90654",
"* c #D70C53",
"= c #D90C54",
"- c #D01551",
"; c #D11551",
": c #D11F51",
"> c #FF3F76",
", c #C85B52",
"< c #FF4277",
"1 c #F04F78",
"2 c #DE7B62",
"3 c #EF9C68",
"4 c #FC807F",
"5 c #F68181",
"6 c #FF8180",
"7 c #FCA790",
"8 c #FFC8AA",
/* pixels */
"XXXXXXXXXXXXXXXXXXXXXXXXXXXXXXXXXXXXXXXXXXXXXXXX",
"X,22222222222222222222XXXXXXX22222222222222222,X",
"X2222222222222222222222222222222222222222222222X",
"X2233333333333333333332222222333333333333333322X",
"X2233222323333333333333333333333333333333333322X",
"X2233333333333333333333332322233333333333333322X",
"X2233333333333333333333333333333333333333333322X",
"X2233333333333333333333333333333333333333333322X",
"X223333333333333333OOOOOOOOOO333333333333333322X",
"X223333333333333333OOOOOOOOOO33333333333333322XX",
"X2233333333333333OO7777777777OO333333333333322XX",
"X2233333333333333O+7777777777+O333333333333322XX",
"X2233333333333333OO7777777777OO333333333333322XX",
"X22333333333333O-77887755555577-O3333333333322XX",
"X22333333333333O%77887755555577OO3333333332322XX",
"X223333333333OO774577775555555577OO33333332322XX",
"X223333333333-%775577775555555577@%33333332322XX",
"X223333333333-%775555555555555577%%33333333322XX",
"X223333333333-@775555555555555577%O33333333222XX",
"X223333333333-%77555  5555  55577%O33333333322XX",
"X223333333333-%77555  5555  55577%O333333333322X",
"X223333333333-#77555  5555  55577%O333333333322X",
"X222233333333-%77555  5555  55577%O333333333322X",
"X223223333333-#77555  5555  55577%O333333333322X",
"X223333333333-#7755555>>>>5555577%O333333333322X",
"X223333333333-%7755555<>>>5555577%O333333333322X",
"X223333333333-#775555555555555577%O333333332322X",
"X223323333333-%775555555555555577#O333333332322X",
"XX22233333333OO775555555555555677OO333333333322X",
"XX22333333O+O7755555555555555555577O+O333333322X",
"XX22233333OOO7755555555555555555577OOO333333322X",
"XX223333*O7775555111111111111115555777OO3323322X",
"XX223333=@7772665111111111111115555777%O3333322X",
"XX223333=@7771111111111111111111111777@O3333322X",
"XX223333:;7771111111111111111111111777-%3333322X",
"XX22333333   7755551111111111555577   333333322X",
"XX22333333 o 7755551111111111555577 . 333333322X",
"XX22333333333      5555555555      333333333322X",
"X223333333333      5555555555      333333333322X",
"X223333333333      5555555555ooooo 333333333322X",
"X223333333333333333          333333333333333322X",
"X223333333333333333          333333333333333322X",
"X2233333333333333333333333333333333333333333322X",
"X2233223233333333333333333333333333333323333322X",
"X2233333333333333333222223333333333333223333322X",
"X2222222222222222222222222222222222222222222222X",
"X,222222222222222222XXXXX222222222222222222222,X",
"XXXXXXXXXXXXXXXXXXXXXXXXXXXXXXXXXXXXXXXXXXXXXXXX"
};
