/* XPM */
static char *_968d443bed44ea2a2108708dab4089dsuzNIVmMCS2OVckq[] = {
/* columns rows colors chars-per-pixel */
"48 48 4 1 ",
"  c #5F2540",
". c #933F5A",
"X c #C85B52",
"o c #DE7B62",
/* pixels */
"                                                ",
" .XXXooX XoXXXoooXoXXooX XoXXXoooXoXXooX XooXX. ",
" .XXXXXo oXXXXXXXXXXXXXo oXXXXXXXXXXXXXo oXXXX. ",
" .XXXXXX oXXXXXXXXXXXXXX oXXXXXXXXXXXXXX oXXXX. ",
" .XXXXXX XXXXXXXXXXXXXXX XXXXXXXXXXXXXXX XXXXX. ",
" .XXXXXX XXXXXXXXXXXXXXX XXXXXXXXXXXXXXX XXXXX. ",
" .XXXXX. .XXXXXXXXXXXXX. .XXXXXXXXXXXXX. .XXXX. ",
" ..XXX.. ..X.XXXX..XXX.. ..X.XXXX..XXX.. ..XX.. ",
"                                                ",
" .XooooXXooXXoX XoXoooXXooXXXoX XoXXoooXXooXoX. ",
" .XXXXXXXXXXXXo oXXXXXXXXXXXXXo oXXXXXXXXXXXXX. ",
" .XXXXXXXXXXXXX oXXXXXXXXXXXXXX oXXXXXXXXXXXXX. ",
" .XXXXXXXXXXXXX XXXXXXXXXXXXXXX XXXXXXXXXXXXXX. ",
" .XXXXXXXXXXXXX XXXXXXXXXXXXXXX XXXXXXXXXXXXXX. ",
" .XXXXXXXXXXXX. .XXXXXXXXXXXXXX .XXXXXXXXXXXXX. ",
" ..XXXXXXXXXX.  ..XXX..XXX.XXX. ..XXXX..XXX.X.. ",
"                                                ",
" .XXoooX XooXXoooXoXXooX XoXXXoooXoXXooX XoXXX. ",
" .XXXXXX oXXXXXXXXXXXXXo oXXXXXXXXXXXXXo oXXXX. ",
" .XXXXXX XXXXXXXXXXXXXXX oXXXXXXXXXXXXXX oXXXX. ",
" .XXXXXX XXXXXXXXXXXXXXX XXXXXXXXXXXXXXX XXXXX. ",
" .XXXXXX XXXXXXXXXXXXXXX XXXXXXXXXXXXXXX XXXXX. ",
" .XXXXX. .XXXXXXXXXXXXX. .XXXXXXXXXXXXX. .XXXX. ",
" ..X.X.. ..X.XXXX..XXX.. ..X.XXXX..XXX.. ..XX.. ",
"                                                ",
" .XXoooXXooXXoX XoXoooXXooXXXoX XoXXoooXXooXXX. ",
" .XXXXXXXXXXXXo oXXXXXXXXXXXXXo oXXXXXXXXXXXXX. ",
" .XXXXXXXXXXXXX oXXXXXXXXXXXXXX oXXXXXXXXXXXXX. ",
" .XXXXXXXXXXXXX XXXXXXXXXXXXXXX XXXXXXXXXXXXXX. ",
" .XXXXXXXXXXXXX XXXXXXXXXXXXXXX XXXXXXXXXXXXXX. ",
" .XXXXXXXXXXXXX .XXXXXXXXXXXXXX .XXXXXXXXXXXXX. ",
" ..XXX..XXX.XX. ..XXX..XXX.XXX. ..XXXX..XXX.X.. ",
"                                                ",
" .XXXooX XooXXoooXoXXooX XoXXooooXoXXooX XooXX. ",
" .XXXXXX oXXXXXXXXXXXXXo oXXXXXXXXXXXXXo oXXXX. ",
" .XXXXXX oXXXXXXXXXXXXXX oXXXXXXXXXXXXXX oXXXX. ",
" .XXXXXX XXXXXXXXXXXXXXX XXXXXXXXXXXXXXX XXXXX. ",
" .XXXXXX XXXXXXXXXXXXXXX XXXXXXXXXXXXXXX XXXXX. ",
" .XXXXX. .XXXXXXXXXXXXX. .XXXXXXXXXXXXX. .XXXX. ",
" ..XXX.. ..X.XXXX..XXX.. ..X.XXXX..XXX.. ..XX.. ",
"                                                ",
" .XXXXXXXXXX XXXXXXXXXXXXXXX XXXXXXXXXXXXX XXX. ",
" ......X.... ....XX....X.... ....XX....X.. .... ",
"  .........   .............   ...........   ..  ",
"                                                ",
" XXXXXXXXXXXXXX XXXXXXXXXXXXXXX XXXXXXXXXXXXXX. ",
" .XXXXXXXXXXXXX .XXXXXXXXXXXXXX .XXXXXXXXXXXXX. ",
" ..XXX..XXX.XX. ..XXX..XXX.XXX. ..XXXX..XXX.X.. "
};
