/* XPM */
static char *efce8bd2c41749ecdc7bc6bea04458acclyYfWRrUvDzUH83[] = {
/* columns rows colors chars-per-pixel */
"48 48 5 1 ",
"  c #681F41",
". c #A1375A",
"X c #DA524C",
"o c #F0745B",
"O c #DE7B62",
/* pixels */
"                                                ",
" XXXXOOX XOXXXOOOXOXXOOX XOXXXOOOXOXXOOX XOOXXX ",
" XXXXXXO OXXXXXXXXXXXXXO OXXXXXXXXXXXXXO OXXXXX ",
" XXXXXXX OXXXXXXXXXXXXXX OXXXXXXXXXXXXXX OXXXXX ",
" XXXXXXX XXXXXXXXXXXXXXX XXXXXXXXXXXXXXX XXXXXX ",
" XXXXXXX XXXXXXXXXXXXXXX XXXXXXXXXXXXXXX XXXXXX ",
" XXXXXX. .XXXXXXXXXXXXX. .XXXXXXXXXXXXX. .XXXXX ",
" XXXXX.. ..X.XXXX..XXX.. ..X.XXXX..XXX.. ..XXXX ",
"                                                ",
" XXOOOOXXOOXXOX XOXOOOXXOOXXXOX XOXXOOOXXOOXOXX ",
" XXXXXXXXXXXXXO OXXXXXXXXXXXXXO OXXXXXXXXXXXXXX ",
" XXXXXXXXXXXXXX OXXXXXXXXXXXXXX OXXXXXXXXXXXXXX ",
" XXXXXXXXXXXXXX XXXXXXXXXXXXXXX XXXXXXXXXXXXXXX ",
" XXXXXXXXXXXXXX XXXXXXXXXXXXXXX XXXXXXXXXXXXXXX ",
" XXXXXXXXXXXXX. .XXXXXXXXXXXXXX .XXXXXXXXXXXXXX ",
" XXXXXXXXXXXX.  ..XXX..XXX.XXX. ..XXXX..XXX.XXX ",
"                                                ",
" XXXOOOX XOOXXOOOXOXXOOX XOXXXOOOXOXXOOX XOXXXX ",
" XXXXXXX OXXXXXXXXXXXXXO OXXXXXXXXXXXXXO OXXXXX ",
" XXXXXXX XXXXXXXXXXXXXXX OXXXXXXXXXXXXXX OXXXXX ",
" XXXXXXX XXXXXXXXXXXXXXX XXXXXXXXXXXXXXX XXXXXX ",
" XXXXXXX XXXXXXXXXXXXXXX XXXXXXXXXXXXXXX XXXXXX ",
" XXXXXX. .XXXXXXXXXXXXX. .XXXXXXXXXXXXX. .XXXXX ",
" XXX.X.. ..X.XXXX..XXX.. ..X.XXXX..XXX.. ..XXXX ",
"                                                ",
" XXXOOOXXOOXXOX XOXOOOXXOOXXXOX XOXXOOOXXOOXXXX ",
" XXXXXXXXXXXXXO OXXXXXXXXXXXXXO OXXXXXXXXXXXXXX ",
" XXXXXXXXXXXXXX OXXXXXXXXXXXXXX OXXXXXXXXXXXXXX ",
" XXXXXXXXXXXXXX XXXXXXXXXXXXXXX XXXXXXXXXXXXXXX ",
" XXXXXXXXXXXXXX XXXXXXXXXXXXXXX XXXXXXXXXXXXXXX ",
" XXXXXXXXXXXXXX .XXXXXXXXXXXXXX .XXXXXXXXXXXXXX ",
" XXXXX..XXX.XX. ..XXX..XXX.XXX. ..XXXX..XXX.XXX ",
"                                                ",
" XXXXOOX XOOXXOOOXOXXOOX XOXXOOOOXOXXOOX XOOXXX ",
" XXXXXXX OXXXXXXXXXXXXXO OXXXXXXXXXXXXXO OXXXXX ",
" XXXXXXX OXXXXXXXXXXXXXX OXXXXXXXXXXXXXX OXXXXX ",
" XXXXXXX XXXXXXXXXXXXXXX XXXXXXXXXXXXXXX XXXXXX ",
" XXXXXXX XXXXXXXXXXXXXXX XXXXXXXXXXXXXXX XXXXXX ",
" XXXXXX. .XXXXXXXXXXXXX. .XXXXXXXXXXXXX. .XXXXX ",
" XXXXX.. ..X.XXXX..XXX.. ..X.XXXX..XXX.. ..XXXX ",
"                                                ",
" XXXoooXXooXXoX XoXoooXXooXXXoX XoXXoooXXooXXXX ",
" XXXXXXXXXXXXXo oXXXXXXXXXXXXXo oXXXXXXXXXXXXXX ",
" XXXXXXXXXXXXXX oXXXXXXXXXXXXXX oXXXXXXXXXXXXXX ",
" XXXXXXXXXXXXXX XXXXXXXXXXXXXXX XXXXXXXXXXXXXXX ",
" XXXXXXXXXXXXXX XXXXXXXXXXXXXXX XXXXXXXXXXXXXXX ",
" XXXXXXXXXXXXXX .XXXXXXXXXXXXXX .XXXXXXXXXXXXXX ",
" XXXXX..XXX.XX. ..XXX..XXX.XXX. ..XXXX..XXX.XXX "
};
