/* XPM */
static char *e05e2c90dd8e48abbeabf2014377c5d14iTr0VV65NoomAGe[] = {
/* columns rows colors chars-per-pixel */
"48 48 5 1 ",
"  c #681F41",
". c #A1375A",
"X c #DA524C",
"o c #F0745B",
"O c #DE7B62",
/* pixels */
"                                                ",
" XXXXOOX XOXXXOOOXOXXOOX XOXXXOOOXOXXOOX XOOXXXX",
" XXXXXXO OXXXXXXXXXXXXXO OXXXXXXXXXXXXXO OXXXXXX",
" XXXXXXX OXXXXXXXXXXXXXX OXXXXXXXXXXXXXX OXXXXXX",
" XXXXXXX XXXXXXXXXXXXXXX XXXXXXXXXXXXXXX XXXXXXX",
" XXXXXXX XXXXXXXXXXXXXXX XXXXXXXXXXXXXXX XXXXXXX",
" XXXXXX. .XXXXXXXXXXXXX. .XXXXXXXXXXXXX. .XXXXXX",
" XXXXX.. ..X.XXXX..XXX.. ..X.XXXX..XXX.. ..XXXXX",
"                                                ",
" XXOOOOXXOOXXOX XOXOOOXXOOXXXOX XOXXOOOXXOOXOXXX",
" XXXXXXXXXXXXXO OXXXXXXXXXXXXXO OXXXXXXXXXXXXXXX",
" XXXXXXXXXXXXXX OXXXXXXXXXXXXXX OXXXXXXXXXXXXXXX",
" XXXXXXXXXXXXXX XXXXXXXXXXXXXXX XXXXXXXXXXXXXXXX",
" XXXXXXXXXXXXXX XXXXXXXXXXXXXXX XXXXXXXXXXXXXXXX",
" XXXXXXXXXXXXX. .XXXXXXXXXXXXXX .XXXXXXXXXXXXXXX",
" XXXXXXXXXXXX.  ..XXX..XXX.XXX. ..XXXX..XXX.XXXX",
"                                                ",
" XXXOOOX XOOXXOOOXOXXOOX XOXXXOOOXOXXOOX XOXXXXX",
" XXXXXXX OXXXXXXXXXXXXXO OXXXXXXXXXXXXXO OXXXXXX",
" XXXXXXX XXXXXXXXXXXXXXX OXXXXXXXXXXXXXX OXXXXXX",
" XXXXXXX XXXXXXXXXXXXXXX XXXXXXXXXXXXXXX XXXXXXX",
" XXXXXXX XXXXXXXXXXXXXXX XXXXXXXXXXXXXXX XXXXXXX",
" XXXXXX. .XXXXXXXXXXXXX. .XXXXXXXXXXXXX. .XXXXXX",
" XXX.X.. ..X.XXXX..XXX.. ..X.XXXX..XXX.. ..XXXXX",
"                                                ",
" XXXOOOXXOOXXOX XOXOOOXXOOXXXOX XOXXOOOXXOOXXXXX",
" XXXXXXXXXXXXXO OXXXXXXXXXXXXXO OXXXXXXXXXXXXXXX",
" XXXXXXXXXXXXXX OXXXXXXXXXXXXXX OXXXXXXXXXXXXXXX",
" XXXXXXXXXXXXXX XXXXXXXXXXXXXXX XXXXXXXXXXXXXXXX",
" XXXXXXXXXXXXXX XXXXXXXXXXXXXXX XXXXXXXXXXXXXXXX",
" XXXXXXXXXXXXXX .XXXXXXXXXXXXXX .XXXXXXXXXXXXXXX",
" XXXXX..XXX.XX. ..XXX..XXX.XXX. ..XXXX..XXX.XXXX",
"                                                ",
" XXXXOOX XOOXXOOOXOXXOOX XOXXOOOOXOXXOOX XOOXXXX",
" XXXXXXX OXXXXXXXXXXXXXO OXXXXXXXXXXXXXO OXXXXXX",
" XXXXXXX OXXXXXXXXXXXXXX OXXXXXXXXXXXXXX OXXXXXX",
" XXXXXXX XXXXXXXXXXXXXXX XXXXXXXXXXXXXXX XXXXXXX",
" XXXXXXX XXXXXXXXXXXXXXX XXXXXXXXXXXXXXX XXXXXXX",
" XXXXXX. .XXXXXXXXXXXXX. .XXXXXXXXXXXXX. .XXXXXX",
" XXXXX.. ..X.XXXX..XXX.. ..X.XXXX..XXX.. ..XXXXX",
"                                                ",
" XXXoooXXooXXoX XoXoooXXooXXXoX XoXXoooXXooXXXXX",
" XXXXXXXXXXXXXo oXXXXXXXXXXXXXo oXXXXXXXXXXXXXXX",
" XXXXXXXXXXXXXX oXXXXXXXXXXXXXX oXXXXXXXXXXXXXXX",
" XXXXXXXXXXXXXX XXXXXXXXXXXXXXX XXXXXXXXXXXXXXXX",
" XXXXXXXXXXXXXX XXXXXXXXXXXXXXX XXXXXXXXXXXXXXXX",
" XXXXXXXXXXXXXX .XXXXXXXXXXXXXX .XXXXXXXXXXXXXXX",
" XXXXX..XXX.XX. ..XXX..XXX.XXX. ..XXXX..XXX.XXXX"
};
